<svg xmlns="http://www.w3.org/2000/svg">
    <symbol id="line" viewBox="0 0 3460 3778">
        <path fill-rule="evenodd" clip-rule="evenodd" d="M3459.69 6.10352e-05V3777.76H3286.11C3166.36 3731.4 3273.23 3371.5 3158.92 3268.42C3019.77 3142.93 2710.98 3241.92 2593.33 3086.72C2443.16 2888.62 2432.31 2655.6 2259.27 2499.13C2082.16 2338.99 1831.53 2453.27 1682.18 2283.53C1575.37 2162.13 1636.47 1883.17 1541.68 1777.09C1393.9 1611.73 1231.72 1734.44 1146.08 1595.82C1054.77 1448 1148.95 1356.38 1050.36 1253.69C921.025 1118.99 602.45 1178.95 499.968 1052.28C244.368 736.358 593.777 467.742 446.439 307.539C321.568 171.761 43.926 177.197 0.441406 6.10352e-05H3459.69H3459.69Z" fill="black" fill-opacity="0.5"/>
    </symbol>
    <symbol id="logo" viewBox="0 0 401 443">
        <path fill-rule="evenodd" clip-rule="evenodd" d="M41.0569 442.094H0.542969V127.327L41.0569 442.094ZM35.6011 0.79834H120.058L77.6736 318.369L35.6011 0.79834ZM108.527 442.094H149.042V127.327L108.527 442.094ZM286.791 442.094H207.009V0.79834H286.791V442.094ZM349.12 442.094H400.231V60.0107H349.12V442.094Z" fill="#FEFEFE"/>
    </symbol>
    <symbol id="title" viewBox="0 0 1636 274">
        <path fill-rule="evenodd" clip-rule="evenodd" d="M345.797 123.011H391.376C401.748 123.011 409.722 119.903 415.234 113.675C420.81 107.518 423.599 98.9579 423.599 88.0702V58.5707C423.599 48.1932 420.81 39.633 415.234 33.0256C409.722 26.3479 401.878 23.0386 391.701 23.0386H345.797V123.011ZM321.294 266.17V7.48055C321.294 5.72835 322.004 4.17158 323.496 2.87481C324.918 1.51342 326.539 0.867887 328.292 0.867887H392.477C408.816 0.867887 422.172 5.79338 432.544 15.7154C442.922 25.5667 448.107 39.1828 448.107 56.4931V85.7322C448.107 110.952 438.902 126.906 420.42 133.649C439.417 141.363 448.883 157.182 448.883 181.039V252.098C448.883 254.626 449.209 257.675 449.854 261.174C450.44 264.738 450.76 266.88 450.76 267.656C450.76 271.356 448.428 273.168 443.763 273.168H437.67C428.785 273.168 424.374 268.112 424.374 257.995V178.967C424.374 168.335 421.266 160.035 415.103 154.133C408.881 148.171 400.451 145.187 389.819 145.187H345.797V266.17C345.797 268.177 345.081 269.859 343.72 271.155C342.298 272.517 340.676 273.168 338.794 273.168H328.292C326.539 273.168 324.918 272.457 323.496 270.965C322.004 269.539 321.294 267.916 321.294 266.17ZM643.707 266.17V7.80595C643.707 5.79335 644.358 4.10655 645.72 2.80978C647.016 1.45369 648.703 0.802856 650.711 0.802856H661.213C662.965 0.802856 664.587 1.45369 666.013 2.80978C667.505 4.10655 668.216 5.79335 668.216 7.80595V266.17C668.216 268.177 667.505 269.859 666.144 271.155C664.717 272.517 663.095 273.168 661.213 273.168H650.711C648.703 273.168 647.016 272.517 645.72 271.155C644.358 269.859 643.707 268.177 643.707 266.17ZM865.443 266.17V9.36312C865.443 7.35052 866.094 5.66335 867.456 4.36658C868.752 3.00519 870.434 2.35965 872.446 2.35965H890.337C893.972 2.35965 896.5 4.30158 897.731 8.25648L938.769 140.386L980.263 6.95975C981.494 3.00522 983.892 1.06332 987.462 1.06332H1004.84C1006.85 1.06332 1008.47 1.70885 1009.76 3.07025C1011.06 4.36661 1011.71 6.05381 1011.71 8.06641V266.17C1011.71 268.177 1011.06 269.859 1009.83 271.155C1008.53 272.517 1006.85 273.168 1004.71 273.168H994.204C992.452 273.168 990.83 272.517 989.403 271.291C987.912 269.994 987.201 268.307 987.201 266.17V51.1118L952.58 159.97C951.604 163.338 949.206 165.026 945.577 165.026H930.409C926.71 165.026 924.377 163.338 923.406 159.97L889.171 51.1118V266.17C889.171 268.177 888.46 269.859 887.098 271.155C885.672 272.517 884.05 273.168 882.173 273.168H872.446C870.434 273.168 868.752 272.517 867.455 271.155C866.094 269.859 865.443 268.177 865.443 266.17ZM1233.05 174.362H1293.15L1265.34 23.0386L1261.12 22.7782L1233.05 174.362V174.362ZM1192.21 264.222L1242.78 8.19111C1243.81 3.59105 1246.34 1.25305 1250.43 1.25305H1279.66C1283.75 1.25305 1286.28 3.46105 1287.38 7.86571L1336.72 263.897C1336.98 264.933 1337.11 265.969 1337.11 266.88C1337.11 271.095 1334.51 273.168 1329.26 273.168H1317.72C1313.51 273.168 1311.05 271.095 1310.2 266.88L1297.1 195.757H1229.03L1215.93 266.685C1215.16 271.03 1212.95 273.168 1209.19 273.168H1198.88C1194.15 273.168 1191.82 271.155 1191.82 267.076C1191.82 266.235 1191.95 265.258 1192.21 264.222V264.222ZM1500.49 264.222L1554.63 136.627L1504.51 15.9758C1502.5 11.0446 1501.4 7.54555 1501.27 5.53862C1501.27 2.35965 1503.22 0.802887 1507.17 0.802887H1518.77C1522.93 0.802887 1525.97 3.13525 1527.85 7.80598L1569.08 110.567L1611.42 7.80598C1613.24 3.13525 1616.22 0.802887 1620.37 0.802887H1630.42C1634.12 0.802887 1635.93 2.35969 1635.93 5.53862C1635.93 6.56931 1634.76 9.87828 1632.36 15.585L1581.08 137.728L1634.44 264.222C1635.22 266.034 1635.54 267.531 1635.54 268.828C1635.54 271.741 1633.33 273.168 1628.92 273.168H1616.94C1613.04 273.168 1610.13 270.835 1608.25 266.17L1567.01 164.315L1526.55 266.17C1524.74 270.835 1521.95 273.168 1517.99 273.168H1506C1501.6 273.168 1499.39 271.741 1499.39 268.828C1499.39 267.531 1499.78 266.034 1500.49 264.222ZM0.361328 217.933V56.1023C0.361328 39.0581 5.61263 25.5667 16.1148 15.6504C26.6227 5.79338 40.0433 0.867887 56.3773 0.867887H71.9354C88.28 0.867887 101.695 5.79338 112.203 15.6504C122.7 25.4363 127.956 38.8571 127.956 55.9126V83.5299C127.956 85.2821 127.305 86.8336 125.944 88.2657C124.647 89.6218 122.96 90.338 120.953 90.338H110.256C108.503 90.338 106.947 89.6218 105.525 88.2657C104.158 86.8986 103.448 85.2821 103.448 83.5299V57.8545C103.448 34.6421 92.4245 23.0386 70.4488 23.0386H57.869C35.8877 23.0386 24.8704 34.7071 24.8704 57.9849V215.66C24.8704 239.193 35.8877 250.997 57.869 250.997H67.9805C78.8084 250.997 87.4934 247.818 93.8513 241.531C100.269 235.178 103.448 226.618 103.448 215.725V170.874H64.1454C62.3932 170.874 60.7767 170.228 59.3499 168.861C57.8528 167.505 57.1419 165.818 57.1419 163.805V155.576C57.1419 153.823 57.8528 152.202 59.3499 150.775C60.7767 149.413 62.3932 148.697 64.1454 148.697H109.876L110.256 148.686H120.953L121.387 148.697H122.087V148.768C123.6 148.99 124.897 149.668 125.944 150.764C127.305 152.185 127.956 153.748 127.956 155.494V266.17C127.956 268.177 127.305 269.859 125.944 271.155C124.647 272.517 122.96 273.168 120.953 273.168H110.256C108.503 273.168 106.947 272.517 105.525 271.291C104.158 269.994 103.447 268.307 103.447 266.17V253.845C100.013 259.036 94.8223 263.512 87.7591 267.396C80.756 271.226 72.6512 273.168 63.3804 273.168H54.8201C38.5459 273.168 25.3855 268.307 15.3392 258.516C5.35213 248.789 0.361328 235.244 0.361328 217.933Z" fill="white"/>
    </symbol>
    <symbol id="title2" viewBox="0 0 1777 687">
        <path d="M245.192 373.349C249.276 367.973 257.876 351.635 270.99 324.332C275.29 315.517 279.536 306.756 283.727 298.049C287.92 289.342 292.059 280.581 296.144 271.767C296.788 269.617 297.004 268.435 296.788 268.219C296.573 267.36 295.928 267.467 294.854 268.543C267.55 292.621 237.882 315.625 205.849 337.553C184.996 351.742 166.077 363.244 149.093 372.058C132.109 380.872 116.952 387.107 103.623 390.762C101.688 391.407 99.8075 391.3 97.9797 390.439C96.1528 389.58 94.4321 388.289 92.82 386.57C91.2081 384.85 89.9176 382.754 88.9505 380.281C87.9838 377.809 87.4995 375.175 87.4995 372.381C87.4995 370.016 87.9288 367.865 88.79 365.932C92.4445 354.107 103.086 335.188 120.716 309.175C132.324 291.976 141.676 277.895 148.771 266.93C155.865 255.966 160.81 248.226 163.604 243.712C178.008 218.988 185.211 198.779 185.211 183.084C185.211 163.951 173.387 153.525 149.738 151.805C139.204 150.73 127.541 152.395 114.749 156.803C101.957 161.21 87.9291 168.036 72.6663 177.281C41.4928 196.629 20.9608 217.053 11.0721 238.552C7.63188 246.721 5.91258 253.816 5.91258 259.835C5.91258 264.78 6.77212 269.187 8.49165 273.057C10.2121 276.926 13.8668 280.69 19.4556 284.344C21.8215 286.064 24.1324 287.408 26.3896 288.374C28.6467 289.341 30.7431 289.933 32.6783 290.149C35.688 290.363 37.193 291.115 37.193 292.406C37.193 293.695 35.1502 294.018 31.0653 293.373C16.6618 290.793 7.5245 284.88 3.655 275.637C1.28934 270.692 0.107422 264.457 0.107422 256.933C0.107422 248.978 1.28934 242.207 3.655 236.617C11.8245 215.117 30.42 194.694 59.4434 175.345C89.9714 154.922 118.242 144.387 144.256 143.742C156.94 143.527 168.549 148.472 179.084 158.576C189.832 168.896 195.208 179.538 195.208 190.502C195.208 197.812 193.434 206.356 189.887 216.139C186.34 225.92 180.804 236.938 173.279 249.193C169.625 255.428 164.249 263.974 157.156 274.831C150.061 285.686 141.031 298.855 130.066 314.334C112.223 340.132 101.366 357.76 97.4968 367.22C96.2064 369.8 95.293 372.111 94.7554 374.154C94.2176 376.197 93.9492 377.862 93.9492 379.153C93.9492 382.162 95.4538 383.667 98.4635 383.667C100.399 383.667 103.945 383.022 109.106 381.732C134.904 374.638 168.979 356.472 211.332 327.233C230.895 313.689 248.148 300.897 263.089 288.858C278.031 276.818 290.769 265.317 301.304 254.352L301.947 252.74C303.668 250.376 305.549 247.688 307.591 244.678C309.634 241.668 311.837 238.336 314.202 234.681C316.352 231.457 319.47 229.845 323.554 229.845C323.985 229.845 324.414 230.06 324.844 230.49C326.78 235.004 326.671 238.336 324.522 240.486C322.802 241.561 321.082 242.959 319.362 244.678C317.642 246.398 315.599 248.44 313.235 250.806C307.43 263.704 301.195 277.356 294.531 291.761C287.866 306.165 280.771 321.751 273.248 338.52C274.323 339.594 275.505 341.046 276.795 342.874C278.085 344.7 279.213 346.475 280.181 348.194C281.148 349.915 281.955 351.581 282.6 353.193C283.245 354.805 283.566 355.934 283.566 356.579C283.566 358.513 281.524 362.168 277.44 367.543C275.505 369.908 273.785 371.736 272.28 373.025C270.775 374.315 269.378 375.068 268.088 375.283C266.368 375.498 264.165 376.036 261.477 376.896C258.789 377.755 255.619 378.723 251.964 379.798C245.084 391.191 238.796 400.92 233.099 408.982C227.402 417.044 222.296 423.87 217.781 429.46C204.667 445.798 191.553 457.623 178.439 464.933C157.799 476.757 139.634 482.454 123.939 482.024C110.826 481.809 100.399 478.476 92.659 472.026C85.3498 466.222 81.695 459.021 81.695 450.421C81.695 439.886 86.9619 430.427 97.4968 422.043C125.444 400.544 174.677 384.313 245.192 373.348L245.192 373.349ZM241 381.732C230.681 383.237 220.146 385.119 209.396 387.376C198.648 389.634 187.467 392.375 175.858 395.599C141.675 404.629 116.845 415.27 101.366 427.525C91.476 435.264 86.5319 443.971 86.5319 453.645C86.5319 469.769 98.7852 477.617 123.294 477.186C141.139 476.971 158.553 471.274 175.536 460.095C188.65 451.281 201.226 439.134 213.266 423.655C215.631 420.215 219.125 415.056 223.746 408.177C228.368 401.296 234.119 392.482 240.999 381.732L241 381.732ZM271.312 342.068C269.593 345.723 267.496 349.915 265.024 354.645C262.551 359.375 259.703 364.856 256.479 371.091C258.198 370.875 260.133 370.446 262.283 369.801C264.433 369.156 267.014 368.404 270.023 367.544C274.538 364.963 276.902 361.524 277.117 357.225C277.333 352.709 275.397 347.658 271.312 342.068V342.068ZM416.752 296.921C417.611 296.921 418.256 297.136 418.686 297.566C420.406 297.995 421.965 298.963 423.363 300.468C424.76 301.973 425.459 303.585 425.459 305.305C425.029 307.885 423.845 310.464 421.911 313.045C418.471 323.364 414.332 335.833 409.496 350.452C404.658 365.071 398.907 382.056 392.243 401.404C425.136 395.599 456.202 392.697 485.44 392.697C490.814 392.697 495.491 392.859 499.467 393.18C503.445 393.504 506.938 393.879 509.948 394.31C512.313 394.739 514.732 395.707 517.204 397.212C519.676 398.717 521.933 400.597 523.976 402.854C526.019 405.112 527.685 407.531 528.975 410.11C530.264 412.691 530.909 415.379 530.909 418.172C530.909 420.753 530.372 423.117 529.297 425.267C526.502 430.643 519.515 437.736 508.335 446.551C506.401 448.271 504.788 449.131 503.499 449.131C503.068 449.131 502.854 449.023 502.854 448.809C502.854 447.518 503.928 446.121 506.078 444.616C518.763 432.792 525.104 422.15 525.104 412.691C525.104 404.951 519.837 400.651 509.303 399.791C506.294 399.576 502.8 399.416 498.822 399.308C494.845 399.2 490.384 399.146 485.44 399.146C465.876 399.146 448.194 399.737 432.392 400.92C416.59 402.102 402.455 404.091 389.986 406.886C326.565 587.689 249.707 680.993 159.412 686.798C128.455 688.518 100.077 679.166 74.278 658.742C48.2642 638.319 35.2574 615.422 35.2574 590.055C35.2574 582.1 36.9783 574.038 40.4182 565.868C56.7567 527.385 108.246 491.054 194.885 456.87C253.792 433.436 315.492 415.593 379.989 403.338C384.934 392.16 390.738 374.638 397.403 350.774C398.477 347.12 399.392 343.733 400.144 340.616C400.897 337.499 401.703 334.651 402.562 332.07C398.908 335.51 393.802 339.649 387.245 344.486C380.687 349.323 372.572 355.181 362.898 362.061C350.643 370.66 340.001 377.701 330.972 383.183C321.942 388.666 314.311 392.805 308.076 395.599C306.356 396.243 304.314 396.566 301.949 396.566C294.209 396.566 290.339 392.696 290.339 384.957C290.339 381.947 291.307 378.615 293.242 374.96C303.346 354.322 320.975 336.048 346.129 320.139C371.282 304.444 394.822 296.706 416.752 296.92L416.752 296.921ZM48.1565 574.575C45.5775 581.456 44.287 588.335 44.287 595.215C44.287 618.003 55.5734 638.105 78.147 655.518C102.011 673.792 128.884 682.284 158.767 680.993C210.794 679.059 260.242 640.146 307.108 564.256C321.512 540.823 334.68 516.207 346.612 490.409C358.544 464.61 369.239 437.2 378.698 408.177C301.089 424.515 233.152 445.907 174.891 472.35C104.591 505.028 62.3462 539.103 48.1563 574.575L48.1565 574.575ZM397.081 330.781C402.455 326.697 405.464 320.785 406.11 313.045C406.11 312.83 406.056 312.723 405.949 312.723C405.841 312.723 405.787 312.615 405.787 312.4C405.787 311.755 405.895 311.325 406.11 311.11C406.11 307.24 405.357 305.198 403.852 304.983C401.488 304.123 396.543 304.66 389.017 306.595C373.324 310.25 357.737 317.99 342.258 329.814C325.92 342.713 315.492 355.827 310.978 369.156C310.763 370.232 310.602 371.091 310.495 371.736C310.386 372.382 310.333 373.241 310.333 374.315C310.333 381.196 312.913 384.635 318.073 384.635C322.587 384.635 335.809 376.789 357.737 361.094C366.552 354.859 374.238 349.216 380.795 344.164C387.352 339.112 392.781 334.651 397.081 330.781L397.081 330.781ZM571.541 293.696C568.532 298.211 565.2 303.693 561.545 310.142C557.889 316.592 554.397 323.203 551.064 329.974C547.732 336.747 544.775 343.358 542.196 349.808C539.616 356.256 538.003 361.632 537.359 365.932C536.714 369.801 536.66 372.596 537.198 374.315C537.736 376.036 538.541 377.057 539.616 377.379C540.692 377.702 542.035 377.648 543.647 377.218C545.259 376.789 546.818 376.358 548.323 375.928C549.828 375.498 551.656 374.8 553.806 373.833C555.955 372.864 557.675 371.951 558.965 371.091C562.405 368.727 564.286 368.457 564.609 370.285C564.931 372.112 563.803 374.208 561.222 376.573C559.073 378.939 556.44 381.142 553.322 383.184C550.205 385.226 547.249 386.784 544.453 387.86C543.163 388.289 541.551 388.075 539.616 387.215C537.682 386.355 535.908 385.119 534.296 383.506C532.683 381.894 531.286 380.067 530.103 378.024C528.921 375.981 528.33 373.886 528.33 371.736C528.33 367.651 528.814 363.351 529.781 358.836C530.748 354.322 531.985 349.915 533.49 345.615C534.994 341.315 536.66 337.069 538.488 332.876C540.315 328.684 541.982 324.761 543.487 321.106C544.776 317.882 544.776 315.248 543.487 313.206C542.197 311.163 539.616 312.078 535.747 315.947C530.587 321.107 523.869 327.61 515.591 335.457C507.315 343.304 498.985 351.043 490.6 358.676C482.216 366.307 474.422 373.079 467.22 378.992C460.018 384.904 454.698 388.398 451.258 389.472C445.453 391.408 440.724 390.493 437.069 386.731C433.413 382.969 431.801 378.401 432.232 373.025C432.661 368.081 434.004 362.384 436.262 355.934C438.52 349.485 441.421 342.874 444.969 336.102C448.516 329.329 452.387 322.451 456.578 315.463C460.771 308.476 465.016 301.866 469.316 295.631C473.616 289.397 477.646 283.753 481.409 278.701C485.172 273.648 488.45 269.509 491.245 266.285C492.32 264.995 493.771 264.082 495.599 263.544C497.425 263.006 498.985 262.952 500.274 263.383C501.564 263.812 502.317 264.727 502.531 266.124C502.747 267.521 501.887 269.509 499.952 272.09C495.007 278.11 489.794 285.097 484.311 293.052C478.83 301.005 473.617 309.068 468.671 317.237C463.727 325.407 459.266 333.361 455.289 341.101C451.311 348.839 448.57 355.611 447.065 361.416C444.486 370.232 444.539 375.874 447.226 378.347C449.914 380.819 453.945 380.551 459.319 377.541C467.705 372.381 476.573 365.555 485.925 357.063C495.276 348.571 504.52 339.703 513.658 330.459C522.794 321.214 531.555 312.185 539.94 303.371C548.324 294.556 555.742 287.247 562.19 281.442C564.126 279.507 565.845 278.862 567.35 279.507C568.856 280.152 570.037 281.389 570.897 283.215C571.758 285.043 572.241 286.978 572.349 289.02C572.457 291.063 572.188 292.621 571.543 293.696L571.541 293.696ZM626.041 284.345C626.47 283.484 626.793 282.947 627.007 282.731C627.438 281.442 627.813 280.581 628.137 280.152C628.458 279.722 628.19 280.367 627.33 282.086V279.829C707.306 99.4565 792.762 6.36711 883.702 0.562404C914.875 -1.15848 942.392 8.19357 966.256 28.6174C990.55 49.0408 1001.41 72.0449 998.827 97.6283C998.182 105.368 995.817 113.323 991.732 121.492C971.308 160.404 916.487 196.737 827.267 230.491C796.31 242.315 765.029 252.634 733.426 261.448C701.823 270.262 669.683 277.788 637.005 284.022C633.995 289.612 630.662 296.707 627.007 305.305C623.353 313.904 619.376 324.332 615.076 336.585C613.356 340.24 612.013 343.627 611.045 346.743C610.078 349.862 609.164 352.709 608.304 355.289C611.959 351.849 617.334 347.712 624.428 342.874C631.522 338.037 640.337 332.178 650.871 325.299C663.771 316.699 675.003 309.658 684.57 304.176C694.137 298.694 702.038 294.663 708.273 292.083C709.992 291.223 712.142 290.793 714.722 290.793C722.032 290.793 725.579 294.771 725.364 302.725C724.935 304.23 724.397 305.789 723.751 307.401C723.106 309.013 722.354 310.68 721.494 312.399C709.025 333.253 689.676 351.527 663.448 367.22C637.005 383.13 612.712 390.869 590.567 390.439C590.138 390.439 589.493 390.224 588.633 389.794C586.912 389.365 585.461 388.397 584.28 386.891C583.097 385.387 582.505 383.774 582.505 382.055C583.365 379.905 584.87 377.325 587.02 374.315C591.32 364.427 596.479 352.387 602.5 338.198C608.519 324.008 615.505 307.67 623.46 289.18C623.891 289.18 624.213 288.642 624.428 287.568V286.601C624.428 286.385 624.536 286.224 624.75 286.117C624.965 286.01 625.073 285.849 625.073 285.633L625.395 285.311V285.956C625.826 285.096 626.148 284.344 626.362 283.699C626.362 283.914 626.255 284.128 626.04 284.344L626.041 284.345ZM984.96 112.785C986.465 109.345 987.648 105.96 988.508 102.627C989.368 99.2942 990.12 95.8016 990.765 92.1468C992.701 69.1428 983.133 49.0411 962.065 31.8431C940.351 13.7842 914.23 5.29144 883.702 6.36711C831.46 8.73163 778.573 47.6437 725.042 123.104C691.719 169.327 663.018 221.353 638.94 279.184C717.84 263.06 787.818 241.669 848.874 215.011C921.754 182.978 967.116 148.903 984.96 112.785V112.785ZM613.141 356.58C607.982 360.88 604.541 366.792 602.822 374.316V374.639C603.037 374.639 603.144 374.746 603.144 374.961C602.929 375.175 602.822 375.391 602.822 375.606C602.822 375.821 602.715 376.036 602.5 376.251L602.822 377.541C602.177 380.551 602.715 382.163 604.434 382.378C606.584 383.023 611.529 382.594 619.269 381.087C627.438 379.368 635.554 376.519 643.615 372.543C651.678 368.565 659.9 363.566 668.285 357.547C685.914 344.647 697.523 331.533 703.113 318.204L704.404 313.045C704.833 306.38 702.468 303.048 697.309 303.048C692.578 303.048 678.604 310.787 655.386 326.266C645.926 332.501 637.757 338.199 630.878 343.358C623.998 348.518 618.086 352.925 613.141 356.58ZM870.803 293.696C867.793 298.211 864.461 303.693 860.806 310.142C857.151 316.592 853.658 323.203 850.325 329.974C846.993 336.747 844.036 343.358 841.457 349.808C838.877 356.256 837.265 361.632 836.62 365.932C835.975 369.801 835.921 372.596 836.459 374.315C836.997 376.036 837.803 377.057 838.877 377.379C839.953 377.702 841.296 377.648 842.909 377.218C844.521 376.789 846.079 376.358 847.584 375.928C849.089 375.498 850.917 374.8 853.067 373.833C855.217 372.864 856.936 371.951 858.226 371.091C861.667 368.727 863.547 368.457 863.87 370.285C864.192 372.112 863.064 374.208 860.484 376.573C858.334 378.939 855.701 381.142 852.583 383.184C849.466 385.226 846.51 386.784 843.715 387.86C842.425 388.289 840.812 388.075 838.877 387.215C836.943 386.355 835.169 385.119 833.557 383.506C831.945 381.894 830.547 380.067 829.364 378.024C828.182 375.981 827.591 373.886 827.591 371.736C827.591 367.651 828.075 363.351 829.042 358.836C830.01 354.322 831.246 349.915 832.751 345.615C834.255 341.315 835.922 337.069 837.749 332.876C839.576 328.684 841.243 324.761 842.748 321.106C844.037 317.882 844.037 315.248 842.748 313.206C841.458 311.163 838.878 312.078 835.008 315.947C829.849 321.107 823.13 327.61 814.853 335.457C806.576 343.304 798.246 351.043 789.861 358.676C781.477 366.307 773.683 373.079 766.482 378.992C759.279 384.904 753.959 388.398 750.519 389.472C744.714 391.408 739.985 390.493 736.33 386.731C732.674 382.969 731.062 378.401 731.493 373.025C731.922 368.081 733.266 362.384 735.523 355.934C737.781 349.485 740.682 342.874 744.23 336.102C747.778 329.329 751.648 322.451 755.839 315.463C760.032 308.476 764.278 301.866 768.578 295.631C772.878 289.397 776.908 283.753 780.67 278.701C784.433 273.648 787.711 269.509 790.506 266.285C791.581 264.995 793.032 264.082 794.86 263.544C796.686 263.006 798.246 262.952 799.535 263.383C800.826 263.812 801.578 264.727 801.793 266.124C802.009 267.521 801.149 269.509 799.213 272.09C794.268 278.11 789.055 285.097 783.572 293.052C778.091 301.005 772.878 309.068 767.933 317.237C762.988 325.407 758.527 333.361 754.551 341.101C750.573 348.839 747.831 355.611 746.326 361.416C743.747 370.232 743.801 375.874 746.487 378.347C749.175 380.819 753.207 380.551 758.581 377.541C766.966 372.381 775.834 365.555 785.186 357.063C794.537 348.571 803.782 339.703 812.919 330.459C822.055 321.214 830.816 312.185 839.201 303.371C847.585 294.556 855.003 287.247 861.452 281.442C863.387 279.507 865.107 278.862 866.611 279.507C868.117 280.152 869.299 281.389 870.159 283.215C871.02 285.043 871.503 286.978 871.61 289.02C871.719 291.063 871.449 292.621 870.804 293.696L870.803 293.696ZM883.379 389.151C882.734 389.365 882.304 388.935 882.09 387.86C881.874 386.14 881.874 384.743 882.09 383.668C882.304 382.163 883.486 379.691 885.636 376.251C888.647 370.446 892.516 363.943 897.246 356.741C901.976 349.538 907.457 341.423 913.692 332.394C919.928 323.364 925.516 315.733 930.461 309.498C935.406 303.264 939.598 298.426 943.037 294.986C944.328 293.912 946.155 292.89 948.52 291.923C950.885 290.956 952.604 290.793 953.68 291.438C954.54 292.083 954.109 293.052 952.389 294.341C950.885 295.2 946.478 300.038 939.168 308.852C930.783 318.527 923.366 329.169 916.916 340.778C914.122 345.723 913.906 348.195 916.273 348.195C917.347 348.195 918.53 347.55 919.819 346.261C932.718 332.931 948.413 320.569 966.901 309.175C980.446 300.79 990.227 297.566 996.246 299.5C998.396 300.146 999.472 301.759 999.472 304.338C999.472 306.488 998.236 310.357 995.764 315.947C993.29 321.537 989.69 328.954 984.96 338.199C983.67 340.133 983.025 341.961 983.025 343.68C983.025 346.045 983.993 347.228 985.927 347.228C987.217 347.228 988.292 346.798 989.153 345.938C1004.2 332.394 1018.23 320.946 1031.23 311.594C1044.24 302.242 1056.23 294.986 1067.19 289.826C1068.48 289.181 1069.66 288.859 1070.74 288.859C1074.39 288.859 1075.79 291.116 1074.93 295.631C1074.07 296.491 1073.16 297.513 1072.19 298.694C1071.22 299.877 1070.09 301.221 1068.8 302.726C1064.5 312.185 1059.51 322.236 1053.81 332.877C1048.11 343.52 1041.5 354.968 1033.98 367.221C1031.83 370.232 1030.75 372.811 1030.75 374.961C1030.75 376.681 1031.5 377.541 1033.01 377.541C1033.87 377.541 1034.73 377.325 1035.59 376.897C1036.45 376.466 1037.52 376.037 1038.81 375.606C1054.72 368.296 1074.61 360.88 1098.47 353.354C1115.24 348.195 1130.56 344.111 1144.43 341.101C1158.29 338.09 1170.92 336.263 1182.32 335.618C1191.56 335.188 1199.95 335.565 1207.47 336.747C1215 337.929 1221.66 340.24 1227.46 343.68C1239.29 350.56 1245.2 359.051 1245.2 369.156C1245.2 372.166 1244.77 374.961 1243.91 377.541C1242.41 381.841 1239.72 384.743 1235.85 386.248C1234.13 387.322 1232.73 387.86 1231.66 387.86C1230.8 387.86 1230.37 387.537 1230.37 386.892C1230.37 386.032 1231.17 385.065 1232.78 383.99C1234.4 382.916 1236.17 380.121 1238.11 375.606C1239.61 371.951 1240.36 368.941 1240.36 366.577C1240.36 359.051 1236.49 352.709 1228.75 347.55C1220.59 341.961 1209.3 339.165 1194.89 339.165C1193.17 339.165 1191.35 339.219 1189.41 339.326C1187.48 339.434 1185.54 339.595 1183.61 339.811C1152 343.035 1120.62 350.237 1089.44 361.416C1056.55 373.026 1029.14 387.215 1007.21 403.984C1006.14 404.629 1005.17 404.951 1004.31 404.951C1001.73 404.951 1000.44 403.769 1000.44 401.404C1000.44 400.544 1000.76 399.791 1001.41 399.147L1009.15 391.408C1008.5 389.258 1008.61 386.677 1009.47 383.667C1027.1 361.954 1039.67 341.208 1047.2 321.43C1048.7 318.419 1049.45 315.517 1049.45 312.723C1049.45 309.068 1047.95 307.24 1044.94 307.24C1043.22 307.24 1041.07 308.207 1038.49 310.142C1006.24 335.94 985.605 355.289 976.575 368.189C976.145 368.618 975.339 369.263 974.156 370.123C972.973 370.984 971.2 371.844 968.836 372.703C966.041 373.993 963.783 375.014 962.063 375.767C960.343 376.519 958.946 377.218 957.871 377.863C956.581 378.508 955.237 378.078 953.84 376.573C952.442 375.068 952.174 373.777 953.034 372.703C959.483 363.244 965.018 354.16 969.641 345.454C974.263 336.747 977.864 328.308 980.445 320.139C981.305 318.204 981.734 316.161 981.734 314.011C981.734 310.142 980.122 308.206 976.898 308.206C976.038 308.206 974.64 308.53 972.705 309.175C970.555 310.249 967.546 312.131 963.676 314.817C959.805 317.505 955.076 321.321 949.486 326.265C937.017 336.585 926.267 346.905 917.239 357.224C914.874 359.803 912.187 363.082 909.177 367.059C906.167 371.037 902.834 375.713 899.18 381.087C898.534 382.162 895.955 383.56 891.439 385.279C889.075 386.139 887.248 386.891 885.958 387.536C884.668 388.182 883.808 388.719 883.378 389.15L883.379 389.151ZM1229.4 290.149C1227.25 292.514 1223.76 295.362 1218.92 298.694C1214.08 302.027 1208.65 304.123 1202.63 304.983C1198.98 305.628 1193.55 306.057 1186.35 306.273C1179.15 306.488 1171.25 306.703 1162.65 306.919C1154.05 307.133 1145.45 307.24 1136.85 307.24C1128.25 307.24 1120.73 307.24 1114.28 307.24C1111.91 310.465 1109.38 314.066 1106.7 318.044C1104.01 322.021 1101.48 326.267 1099.12 330.781C1096.75 335.297 1094.71 339.972 1092.99 344.81C1091.27 349.646 1090.3 354.645 1090.09 359.804C1089.87 364.535 1090.36 368.404 1091.54 371.414C1092.72 374.423 1094.33 376.736 1096.38 378.347C1098.42 379.96 1100.78 381.034 1103.47 381.572C1106.16 382.11 1108.9 382.271 1111.69 382.056C1118.79 380.98 1126.37 378.939 1134.43 375.928C1142.49 372.918 1149.42 369.802 1155.23 366.577C1156.95 365.502 1158.24 365.341 1159.1 366.093C1159.96 366.846 1159.53 367.759 1157.81 368.834C1155.44 370.554 1152.65 372.436 1149.42 374.477C1146.2 376.52 1142.65 378.508 1138.78 380.444C1134.91 382.378 1130.88 384.152 1126.69 385.765C1122.5 387.376 1118.47 388.506 1114.6 389.151C1111.37 389.795 1107.83 389.419 1103.96 388.022C1100.09 386.624 1096.54 384.528 1093.31 381.733C1090.09 378.939 1087.4 375.66 1085.25 371.898C1083.1 368.136 1082.13 364.104 1082.35 359.804C1082.99 347.98 1086.27 336.156 1092.18 324.332C1098.1 312.507 1105.3 301.489 1113.79 291.278C1122.28 281.066 1131.2 272.251 1140.56 264.835C1149.91 257.418 1158.35 252.204 1165.87 249.194C1169.96 247.905 1173.61 248.066 1176.84 249.678C1180.06 251.29 1182.59 253.655 1184.41 256.773C1186.24 259.89 1187.32 263.383 1187.64 267.253C1187.96 271.122 1187.16 274.67 1185.22 277.895C1182 283.915 1176.19 288.967 1167.81 293.052C1159.42 297.136 1149.85 300.039 1139.11 301.759C1144.91 301.759 1150.82 301.759 1156.84 301.759C1163.08 301.759 1168.99 301.704 1174.58 301.597C1180.17 301.49 1185.38 301.329 1190.22 301.114C1195.06 300.898 1199.19 300.576 1202.63 300.146C1207.15 299.717 1211.72 298.319 1216.34 295.955C1220.96 293.589 1224.56 291.224 1227.14 288.86C1228.22 287.355 1229.13 286.817 1229.88 287.248C1230.64 287.677 1230.47 288.644 1229.4 290.15L1229.4 290.149ZM1177.48 274.993C1179.63 271.552 1180.81 268.543 1181.03 265.962C1181.24 263.383 1180.71 261.394 1179.42 259.997C1178.13 258.599 1176.24 257.954 1173.77 258.061C1171.3 258.17 1168.45 259.083 1165.23 260.803C1157.27 265.318 1149.21 271.284 1141.04 278.701C1132.87 286.118 1125.13 293.804 1117.82 301.759C1123.41 301.759 1129.22 301.113 1135.24 299.823C1141.26 298.533 1146.95 296.652 1152.33 294.179C1157.7 291.708 1162.59 288.859 1167 285.634C1171.41 282.409 1174.9 278.862 1177.48 274.993Z" fill="#FEFEFE"/>
        <path d="M1281.32 281.442C1283.25 279.507 1284.97 278.862 1286.48 279.507C1287.98 280.152 1289.11 281.334 1289.86 283.055C1290.62 284.774 1291.1 286.763 1291.32 289.02C1291.53 291.277 1291.32 292.836 1290.67 293.696C1287.66 298.211 1284.33 303.693 1280.67 310.143C1277.02 316.592 1273.47 323.203 1270.03 329.975C1266.59 336.748 1263.64 343.358 1261.16 349.808C1258.69 356.257 1257.13 361.632 1256.49 365.932C1255.84 369.801 1255.79 372.596 1256.33 374.316C1256.87 376.037 1257.67 377.057 1258.75 377.379C1259.82 377.702 1261.16 377.649 1262.78 377.218C1264.39 376.789 1265.95 376.359 1267.45 375.928C1268.96 375.499 1270.79 374.8 1272.94 373.833C1275.08 372.865 1276.8 371.951 1278.09 371.091C1281.53 368.727 1283.42 368.457 1283.74 370.286C1284.06 372.112 1282.93 374.209 1280.35 376.573C1278.2 378.939 1275.57 381.142 1272.45 383.184C1269.33 385.226 1266.38 386.785 1263.58 387.86C1262.29 388.29 1260.68 388.075 1258.75 387.215C1256.81 386.356 1255.04 385.119 1253.43 383.507C1251.81 381.895 1250.42 380.013 1249.23 377.863C1248.05 375.713 1247.46 373.671 1247.46 371.736C1247.46 363.352 1249.23 354.698 1252.78 345.776C1256.33 336.855 1259.61 328.631 1262.62 321.107C1263.26 319.602 1263.58 318.151 1263.58 316.753C1263.58 315.356 1263.26 314.442 1262.62 314.012C1261.97 313.582 1260.95 313.69 1259.55 314.335C1258.16 314.98 1256.49 316.485 1254.55 318.85L1191.99 397.534C1183.82 408.069 1174.58 418.657 1164.26 429.299C1153.94 439.94 1143.57 450.045 1133.14 459.612C1122.71 469.178 1112.82 477.724 1103.47 485.25C1094.12 492.774 1086.22 498.686 1079.77 502.986C1069.45 509.65 1059.94 514.434 1051.23 517.336C1042.52 520.239 1034.09 521.474 1025.92 521.045C1017.75 520.829 1011.19 518.949 1006.25 515.401C1001.3 511.854 997.753 506.963 995.603 500.729C994.957 499.008 994.528 497.02 994.312 494.763C994.097 492.505 993.99 490.517 993.99 488.796C993.99 481.917 995.71 476.757 999.15 473.317C1000.22 471.813 1001.03 470.576 1001.57 469.609C1002.11 468.642 1002.7 468.158 1003.34 468.158C1005.06 466.867 1005.71 466.76 1005.28 467.836C1005.49 468.481 1005.44 469.178 1005.12 469.932C1004.79 470.685 1004.36 471.813 1003.82 473.317C1003.29 474.822 1002.75 476.704 1002.21 478.961C1001.68 481.218 1001.41 484.174 1001.41 487.829C1000.98 494.279 1001.19 498.364 1002.05 500.083C1005.28 509.973 1012.26 515.885 1023.01 517.819C1035.05 518.895 1049.13 514.488 1065.26 504.598C1066.98 503.524 1068.97 502.233 1071.22 500.729C1073.48 499.224 1075.68 497.612 1077.83 495.891C1095.25 482.991 1112.07 469.125 1128.3 454.291C1144.53 439.458 1160.39 422.903 1175.87 404.63C1191.99 386.356 1207.47 368.297 1222.31 350.452C1237.14 332.609 1249.07 314.765 1258.1 296.921C1258.53 296.491 1259.66 295.524 1261.49 294.019C1263.31 292.514 1265.41 290.956 1267.77 289.342C1270.14 287.73 1272.56 286.172 1275.03 284.667C1277.5 283.162 1279.6 282.086 1281.32 281.443L1281.32 281.442ZM1329.69 313.045C1328.83 314.55 1327.86 316.269 1326.79 318.205C1330.01 318.419 1332.49 318.419 1334.21 318.205C1336.57 317.99 1339.53 317.72 1343.08 317.398C1346.62 317.076 1351.46 317.022 1357.59 317.237C1363.71 317.452 1372.69 318.205 1384.51 319.495C1384.73 319.495 1384.73 319.87 1384.51 320.623C1384.3 321.376 1383.92 322.128 1383.38 322.882C1382.85 323.634 1382.26 324.333 1381.61 324.977C1380.97 325.622 1380.32 325.838 1379.68 325.622C1374.3 324.977 1371.29 325.514 1370.65 327.235C1370.43 327.45 1370.54 327.879 1370.97 328.524C1372.04 330.029 1372.58 330.997 1372.58 331.427C1376.02 343.036 1370.86 355.612 1357.1 369.157C1342.27 382.271 1327.76 388.828 1313.57 388.828C1310.77 388.613 1307.92 387.645 1305.02 385.926C1302.12 384.206 1299.92 381.842 1298.41 378.831C1295.83 374.961 1294.81 369.963 1295.35 363.836C1295.89 357.709 1297.39 351.044 1299.86 343.842C1302.34 336.639 1305.45 329.276 1309.21 321.752C1312.98 314.228 1316.74 307.133 1320.5 300.469C1324.26 293.805 1327.76 287.838 1330.98 282.571C1334.21 277.304 1336.46 273.272 1337.75 270.479C1337.97 268.113 1338.99 266.5 1340.82 265.641C1342.64 264.781 1344.53 264.728 1346.46 265.48C1348.4 266.232 1349.85 267.684 1350.81 269.833C1351.78 271.983 1351.41 274.777 1349.69 278.218C1346.03 285.312 1343.18 290.472 1341.14 293.696C1339.1 296.922 1337.22 299.931 1335.5 302.726C1333.78 305.521 1331.84 308.96 1329.69 313.046L1329.69 313.045ZM1323.89 330.459C1323.24 330.029 1322.49 329.706 1321.63 329.492C1321.2 330.352 1320.77 331.319 1320.34 332.394C1318.62 335.833 1316.95 339.058 1315.34 342.068C1313.73 345.078 1312.22 348.248 1310.83 351.581C1309.43 354.914 1308.19 358.514 1307.12 362.385C1306.04 366.254 1305.29 370.768 1304.86 375.928C1304.65 377.004 1304.75 378.723 1305.18 381.088C1306.9 384.958 1310.23 386.785 1315.18 386.57C1320.98 386.356 1326.68 384.743 1332.27 381.733C1337.86 378.723 1343.56 374.423 1349.36 368.834C1361.4 356.365 1366.35 344.756 1364.2 334.006C1363.98 329.706 1359.79 326.589 1351.62 324.654C1349.47 324.009 1347.21 323.955 1344.85 324.493C1342.48 325.03 1340.17 325.729 1337.91 326.589C1335.66 327.449 1333.51 328.416 1331.47 329.492C1329.42 330.566 1327.65 331.319 1326.14 331.749L1323.89 330.459H1323.89ZM1489.96 308.207C1490.61 307.562 1491.47 306.381 1492.54 304.66C1493.62 302.94 1494.69 301.113 1495.77 299.178C1496.84 297.243 1497.81 295.47 1498.67 293.858C1499.53 292.244 1500.28 291.331 1500.93 291.116C1503.29 290.041 1504.9 289.181 1505.77 288.536C1506.63 287.891 1507.81 287.891 1509.31 288.536C1512.32 289.612 1512.21 292.084 1508.99 295.954C1493.51 315.947 1479.75 338.521 1467.71 363.675C1461.69 376.573 1457.12 388.021 1454.01 398.019C1450.89 408.015 1449.12 416.776 1448.69 424.301C1447.83 433.975 1449.87 441.607 1454.81 447.196C1459.33 451.926 1465.24 454.291 1472.55 454.291C1476.2 454.291 1479.32 453.861 1481.9 453.001C1488.14 451.281 1495.07 448.056 1502.7 443.327C1510.33 438.597 1518.77 432.255 1528.02 424.301C1548.44 406.887 1558.65 392.913 1558.65 382.378C1558.65 379.154 1557.68 377.165 1555.75 376.412C1553.81 375.66 1551.99 375.284 1550.27 375.284C1549.41 375.284 1548.98 374.961 1548.98 374.316C1548.98 373.026 1549.89 371.951 1551.72 371.092C1553.55 370.232 1555.21 369.802 1556.72 369.802C1560.37 369.802 1562.2 372.274 1562.2 377.218C1562.2 379.583 1561.55 382.701 1560.26 386.57C1558.33 392.806 1554.89 399.363 1549.94 406.242C1545 413.121 1538.76 420.323 1531.24 427.848C1510.39 448.272 1488.03 459.774 1464.16 462.353C1455.57 463.213 1448.47 460.848 1442.88 455.258C1436.86 449.024 1434.39 438.92 1435.46 424.946C1436.75 409.682 1443.53 390.225 1455.78 366.577C1459.22 359.912 1462.66 353.463 1466.1 347.228C1469.54 340.993 1473.19 334.759 1477.06 328.524C1473.84 329.599 1470.24 330.727 1466.26 331.91C1462.28 333.093 1458.2 334.275 1454.01 335.458C1449.81 336.639 1445.78 337.876 1441.91 339.166C1438.04 340.456 1434.5 341.531 1431.27 342.39C1428.26 344.111 1425.74 345.346 1423.69 346.099C1421.65 346.851 1419.98 345.723 1418.69 342.713C1416.97 346.368 1415.47 349.754 1414.18 352.872C1412.89 355.989 1412.03 358.837 1411.6 361.416C1411.6 361.847 1411.33 362.976 1410.79 364.803C1410.26 366.631 1409.61 368.672 1408.86 370.931C1408.11 373.188 1407.35 375.391 1406.6 377.541C1405.85 379.691 1405.15 381.303 1404.5 382.378C1403.22 384.528 1398.49 385.603 1390.32 385.603C1387.95 385.603 1386.66 385.173 1386.45 384.313C1385.59 383.453 1385.8 381.733 1387.09 379.153C1391.82 368.834 1400.21 354.537 1412.24 336.263C1413.1 335.188 1413.91 334.06 1414.66 332.877C1415.42 331.695 1416.11 330.566 1416.76 329.492C1416.97 327.987 1417.51 327.234 1418.37 327.234C1422.67 320.785 1426.76 314.926 1430.63 309.658C1434.5 304.391 1438.26 299.609 1441.91 295.309C1442.99 293.374 1445.68 291.976 1449.98 291.116C1451.27 290.902 1452.02 290.902 1452.23 291.116C1452.23 291.976 1451.91 292.729 1451.27 293.374C1450.41 294.233 1449.01 296.008 1447.07 298.694C1445.14 301.382 1442.88 304.553 1440.3 308.207C1437.72 311.862 1434.93 315.947 1431.92 320.462C1428.91 324.976 1426.11 329.492 1423.53 334.006C1423.53 334.221 1423.64 334.436 1423.85 334.652C1424.93 336.801 1427.46 337.768 1431.43 337.554C1435.41 337.338 1440.25 336.425 1445.94 334.813C1451.64 333.2 1457.72 331.104 1464.16 328.524C1470.61 325.945 1476.74 323.257 1482.55 320.462C1483.62 318.957 1484.7 317.506 1485.77 316.108C1486.85 314.711 1487.92 313.152 1489 311.433C1489.64 310.573 1489.96 309.498 1489.96 308.207H1489.96ZM1527.05 394.955C1525.54 395.17 1523.93 395.009 1522.21 394.471C1520.49 393.933 1518.93 393.127 1517.53 392.053C1516.14 390.977 1514.96 389.687 1513.99 388.182C1513.02 386.677 1512.54 385.065 1512.54 383.346C1512.97 365.502 1527.37 339.166 1555.75 304.338C1556.61 302.833 1556.39 301.866 1555.1 301.435C1553.17 300.361 1551.23 299.125 1549.3 297.727C1547.36 296.33 1546.4 294.986 1546.4 293.696C1546.4 293.052 1546.72 292.191 1547.36 291.116C1548.01 290.041 1550.8 289.397 1555.75 289.181C1563.7 288.966 1567.79 288.859 1568 288.859C1568.86 288.859 1570.04 288.429 1571.55 287.569C1576.28 283.054 1581.01 280.69 1585.74 280.474C1589.18 280.259 1594.02 282.195 1600.25 286.279C1600.68 286.495 1601.06 286.709 1601.38 286.924C1601.7 287.139 1602.08 287.355 1602.51 287.569C1607.45 287.784 1613.42 288 1620.41 288.214C1627.39 288.429 1635.4 288.643 1644.43 288.859C1647.66 289.289 1649.27 289.719 1649.27 290.15C1649.27 291.439 1647.66 292.084 1644.43 292.084C1637.77 292.084 1633.47 293.374 1631.53 295.954C1631.1 296.599 1631.1 297.244 1631.53 297.889C1631.75 298.534 1631.96 299.179 1632.18 299.824C1632.39 300.469 1632.5 301.005 1632.5 301.436C1631.85 309.605 1628.36 318.366 1622.02 327.718C1615.68 337.07 1606.06 347.228 1593.16 358.192C1568 379.906 1545.97 392.161 1527.05 394.956L1527.05 394.955ZM1522.53 377.863C1521.24 380.228 1520.6 382.594 1520.6 384.958C1520.6 390.118 1524.04 392.053 1530.92 390.763C1545.54 388.398 1563.06 377.863 1583.48 359.159C1604.98 340.026 1617.34 322.612 1620.57 306.918C1622.07 300.469 1617.99 296.707 1608.31 295.631C1603.15 294.986 1598.32 294.932 1593.8 295.47C1589.29 296.008 1585.09 297.029 1581.22 298.533C1580.79 298.319 1578.97 299.286 1575.74 301.436C1552.74 322.719 1535 348.195 1522.53 377.863V377.863ZM1776 290.149C1773.85 292.514 1770.36 295.362 1765.52 298.694C1760.68 302.027 1755.26 304.123 1749.24 304.983C1745.58 305.628 1740.15 306.057 1732.95 306.273C1725.75 306.488 1717.85 306.703 1709.25 306.918C1700.65 307.133 1692.05 307.24 1683.45 307.24C1674.85 307.24 1667.33 307.24 1660.88 307.24C1658.51 310.464 1655.99 314.066 1653.3 318.044C1650.61 322.02 1648.08 326.266 1645.72 330.781C1643.36 335.297 1641.31 339.972 1639.59 344.81C1637.87 349.646 1636.91 354.645 1636.69 359.804C1636.48 364.534 1636.96 368.404 1638.14 371.413C1639.32 374.423 1640.94 376.735 1642.98 378.347C1645.02 379.96 1647.39 381.034 1650.07 381.572C1652.76 382.109 1655.5 382.27 1658.3 382.056C1665.39 380.98 1672.97 378.939 1681.03 375.928C1689.09 372.918 1696.03 369.801 1701.83 366.577C1703.55 365.502 1704.84 365.341 1705.7 366.093C1706.56 366.846 1706.13 367.759 1704.41 368.834C1702.05 370.554 1699.25 372.436 1696.03 374.477C1692.8 376.52 1689.26 378.508 1685.39 380.444C1681.51 382.378 1677.48 384.152 1673.29 385.764C1669.1 387.376 1665.07 388.506 1661.2 389.151C1657.97 389.794 1654.43 389.419 1650.56 388.022C1646.69 386.624 1643.14 384.528 1639.91 381.733C1636.69 378.939 1634 375.66 1631.85 371.898C1629.7 368.136 1628.74 364.104 1628.95 359.804C1629.6 347.98 1632.87 336.156 1638.79 324.332C1644.7 312.507 1651.9 301.489 1660.39 291.277C1668.88 281.066 1677.81 272.251 1687.16 264.835C1696.51 257.418 1704.95 252.203 1712.47 249.194C1716.56 247.905 1720.21 248.066 1723.44 249.678C1726.66 251.29 1729.19 253.655 1731.02 256.773C1732.84 259.89 1733.92 263.383 1734.24 267.253C1734.56 271.122 1733.76 274.67 1731.82 277.895C1728.6 283.915 1722.79 288.967 1714.41 293.052C1706.02 297.136 1696.46 300.039 1685.71 301.759C1691.51 301.759 1697.42 301.759 1703.44 301.759C1709.68 301.759 1715.59 301.704 1721.18 301.597C1726.77 301.489 1731.98 301.329 1736.82 301.114C1741.66 300.898 1745.8 300.576 1749.24 300.146C1753.75 299.717 1758.32 298.319 1762.94 295.954C1767.56 293.589 1771.16 291.224 1773.74 288.86C1774.82 287.355 1775.73 286.817 1776.49 287.248C1777.24 287.677 1777.08 288.644 1776 290.15L1776 290.149ZM1724.08 274.993C1726.23 271.552 1727.41 268.543 1727.63 265.962C1727.85 263.383 1727.31 261.394 1726.02 259.997C1724.73 258.599 1722.85 257.954 1720.37 258.061C1717.9 258.17 1715.05 259.083 1711.83 260.803C1703.87 265.317 1695.81 271.284 1687.64 278.701C1679.47 286.117 1671.73 293.804 1664.42 301.759C1670.01 301.759 1675.82 301.113 1681.84 299.823C1687.86 298.533 1693.55 296.651 1698.93 294.179C1704.3 291.707 1709.2 288.859 1713.6 285.633C1718.01 282.409 1721.5 278.862 1724.08 274.993H1724.08Z" fill="#FEFEFE"/>
    </symbol>
    <symbol id="whatsapp" viewBox="0 0 180 181">
        <path fill-rule="evenodd" clip-rule="evenodd" d="M3.34431 87.3514L3.42407 92.4648L3.82324 97.4224C4.45367 103.928 5.92984 110.319 7.98173 116.475L9.66552 121.041C10.1089 122.271 11.4793 125.29 12.1377 126.604C12.549 127.424 12.9315 128.186 13.3276 128.985L15.9263 133.609C15.9263 134.152 14.3613 138.337 13.9667 139.523L13.2475 141.725C13.1673 141.992 13.0853 142.168 12.9934 142.444C12.513 143.889 11.5637 146.958 11.0217 148.346L8.53857 155.683C8.24226 156.775 7.42589 158.972 7.04718 160.116L4.06439 168.983C3.50842 170.649 2.56009 173.214 2.09182 174.883C1.93611 175.435 1.75954 175.793 1.58795 176.327C1.14992 177.681 0.383162 179.615 0.0966797 180.842C0.403567 180.77 0.640432 180.672 0.958297 180.567L17.3778 175.313C18.5211 174.93 19.6965 174.636 20.8202 174.21C21.1176 174.098 21.3935 174.026 21.691 173.944C22.0391 173.849 22.1895 173.761 22.53 173.648L25.9811 172.553C26.5586 172.36 27.1709 172.185 27.7677 171.986L31.2047 170.877C33.0552 170.37 36.159 169.293 38.0972 168.678C40.0905 168.045 43.1575 166.983 45.0521 166.46L47.6185 165.617C48.9686 165.105 48.9326 165.247 50.7551 166.312C51.0091 166.46 51.2386 166.531 51.5164 166.686C51.9967 166.953 52.547 167.238 53.0251 167.451C53.5909 167.702 54.0818 167.932 54.6473 168.183C54.9103 168.3 55.1133 168.428 55.413 168.553C55.7267 168.684 55.9073 168.756 56.2135 168.889L63.5858 171.743C65.0482 172.209 66.521 172.697 68.0264 173.067C68.3197 173.139 68.5911 173.22 68.9177 173.313C69.1902 173.391 69.5137 173.461 69.8297 173.538L73.515 174.396C76.0382 174.963 79.8095 175.557 82.4083 175.732C83.4401 175.802 84.5305 175.857 85.6107 176.02L92.2294 176.212C93.5877 176.1 95.222 176.096 96.6193 176.056C98.9369 175.99 102.718 175.496 104.872 175.137C108.633 174.508 112.44 173.756 116.09 172.635L126.119 169.028L129.297 167.58C129.829 167.36 130.305 167.086 130.819 166.829L133.797 165.261C134.054 165.128 134.257 164.995 134.527 164.855C137.087 163.536 142.018 160.199 144.175 158.512L144.825 158.027C145.049 157.846 145.238 157.721 145.466 157.531L147.981 155.5C148.214 155.293 148.367 155.195 148.591 154.974C149.47 154.099 150.709 153.175 151.636 152.257C152.559 151.344 154.938 149.077 155.609 148.275C156.291 147.459 157.095 146.701 157.755 145.876L160.36 142.717C161.97 140.888 163.213 138.736 164.655 136.786C164.981 136.347 165.242 135.878 165.553 135.411L168.541 130.365C168.674 130.11 168.774 129.874 168.931 129.618C169.184 129.2 169.504 128.59 169.712 128.127L170.461 126.603C170.724 126.081 170.968 125.56 171.204 125.074L174.498 116.924C174.609 116.604 174.645 116.361 174.766 116.056C175.911 113.157 177.282 107.348 177.806 104.243C178.941 97.4962 179.256 94.1109 179.256 86.7027C179.256 81.5149 178.607 76.9216 177.784 72.0237C177.661 71.2893 177.466 70.502 177.327 69.802C177.169 69.0019 177.006 68.2913 176.82 67.5494L176.269 65.423C175.114 61.2107 174.148 58.4971 172.494 54.3452C171.402 51.6013 170.011 48.663 168.545 46.1206C168.203 45.5287 167.903 44.9363 167.563 44.3425C166.42 42.3537 165.147 40.4427 163.88 38.5295C163.678 38.2233 163.537 37.9938 163.322 37.7073L158.022 30.9146L155.451 28.0474C155.221 27.8195 154.967 27.5977 154.764 27.3543C154.502 27.0417 154.399 26.9142 154.111 26.6273C153.561 26.0782 153.04 25.4659 152.443 24.9674L144.801 18.4049L140.512 15.3085C140.336 15.1811 140.238 15.1428 140.062 15.0271C138.42 13.9587 136.805 12.8275 135.068 11.9049C133.295 10.9619 131.569 9.9679 129.752 9.10274C129.164 8.82268 128.533 8.47765 127.881 8.21384L126.031 7.38646C124.337 6.57083 121.935 5.72441 120.19 5.11023C116.735 3.89548 113.191 2.89599 109.571 2.17259L105.06 1.32685C103.49 1.06077 101.824 0.90187 100.248 0.700421C99.8867 0.653935 99.2779 0.604503 98.9717 0.596967C96.865 0.542914 94.6078 0.272217 92.4773 0.272217L86.3073 0.434468C86.0976 0.445415 85.8727 0.422684 85.6625 0.438934L82.5047 0.690993C79.3326 1.0217 75.0001 1.63944 71.9546 2.39761C70.5032 2.76007 69.0431 3.06274 67.6069 3.48871L64.488 4.42872C64.1418 4.52396 63.824 4.64152 63.4627 4.78324L60.4583 5.83763C59.7466 6.10938 59.1355 6.33629 58.4628 6.60125C58.1408 6.72787 57.8475 6.88984 57.5599 6.9972L48.3691 11.443C47.4696 11.8961 46.6574 12.4272 45.804 12.9367C44.1092 13.9511 42.4946 15.0953 40.8475 16.1793C39.2416 17.2368 37.7121 18.458 36.2101 19.6573C35.1968 20.4665 34.2696 21.3495 33.251 22.1372L22.6631 33.2203C21.4639 34.7605 20.2589 36.2885 19.158 37.913C17.1291 40.9086 15.1642 43.9653 13.4898 47.1794L12.5834 48.9508C12.3759 49.2958 12.3185 49.513 12.139 49.8861C10.5535 53.189 9.40187 56.0584 8.13307 59.5159C7.51663 61.1956 7.04079 62.9183 6.53772 64.6561C5.33734 68.7996 4.66043 72.8993 4.03871 77.1713C3.6275 79.9942 3.34443 84.5666 3.34443 87.3514H3.34431ZM47.3418 66.7383C47.3418 70.6037 48.1692 74.2027 49.4009 77.8265L51.2396 82.1562C52.3535 84.4163 53.5602 86.6558 54.9568 88.7474C56.2437 90.6757 57.4128 92.7134 58.7658 94.5964C58.8762 94.7502 58.8803 94.7835 58.9861 94.9437C59.273 95.3742 59.5572 95.7815 59.8558 96.1852L61.1428 97.9816C61.2856 98.1861 61.4338 98.3601 61.5948 98.585C63.3058 100.971 65.2125 103.181 67.092 105.426C67.2575 105.622 67.4092 105.725 67.5668 105.924L69.0789 107.578C69.2702 107.786 69.3136 107.897 69.5223 108.109L73.1355 111.719C73.9889 112.576 74.9482 113.314 75.8134 114.154L77.494 115.558C77.8985 115.874 78.2088 116.18 78.6067 116.475L82.1335 119.116C84.2046 120.55 86.331 121.796 88.5027 123.056C90.4881 124.208 93.4375 125.457 95.5507 126.316L96.9695 126.927C97.4813 127.156 97.9625 127.31 98.4568 127.551C100.224 128.413 106.879 130.745 108.226 131.093C108.522 131.17 108.735 131.258 109.026 131.348C111.873 132.229 114.705 132.607 117.662 132.006C120.538 131.423 120.744 131.843 123.996 130.549L129.054 127.896C129.811 127.401 130.578 126.884 131.262 126.288C131.952 125.685 132.686 125.129 133.262 124.393C134.179 123.221 134.644 122.638 135.234 121.17L135.891 119.311C136.371 117.52 137.747 112.376 136.687 110.837C136.481 110.538 135.854 109.993 135.527 109.806L133.8 108.853C133.629 108.757 133.643 108.766 133.424 108.661C133.135 108.522 132.988 108.413 132.686 108.263L131.268 107.489C128.396 106.002 125.589 104.369 122.703 102.904L120.565 101.796C119.018 101.029 116.666 99.6061 114.962 99.6061C114.148 99.6061 113.369 100.095 112.95 100.515C112.727 100.739 112.487 101.065 112.296 101.321C112.057 101.64 111.881 101.882 111.616 102.184C111.38 102.453 111.196 102.715 110.966 102.995L106.497 108.103C106.366 108.26 106.24 108.367 106.094 108.512C105.241 109.358 104.21 110.967 102.624 110.967C101.477 110.967 100.538 110.371 99.7285 109.967C97.9828 109.094 96.217 108.362 94.5514 107.351L91.4559 105.496C90.2643 104.771 89.1157 103.943 88.0117 103.096C87.7997 102.935 87.7045 102.839 87.46 102.674L85.8399 101.371C84.9899 100.56 84.0284 99.8948 83.2022 99.0588C82.5563 98.4053 81.7853 97.8591 81.2274 97.1369C80.6552 96.3961 79.9296 95.8442 79.3608 95.108C78.7973 94.38 78.1355 93.7225 77.586 92.987C75.9226 90.7635 75.0056 89.5433 73.4817 87.2703C72.691 86.0915 71.9124 84.853 71.2344 83.5921C70.9887 83.1336 70.7779 82.7592 70.5583 82.3204C69.6327 80.4654 70.0469 79.4718 71.4721 78.0386L72.0119 77.5238C72.0281 77.5064 72.0723 77.4558 72.0885 77.4372C72.4684 77.0188 72.945 76.6382 73.2848 76.199C73.6526 75.722 74.0808 75.3196 74.4747 74.8732C74.7037 74.6136 74.7815 74.4817 75.0445 74.2255C75.6761 73.6056 76.2004 72.8527 76.6516 72.0991C77.0712 71.3995 77.6377 70.4874 77.9113 69.7058C78.4533 68.158 77.6887 66.6992 77.1456 65.3473C76.9392 64.8326 76.765 64.3188 76.5651 63.8168L75.9661 62.2251C75.0586 59.6187 73.9856 57.0629 73.1053 54.4532L71.9729 51.3657C71.5696 50.3142 71.3055 49.2306 70.7681 48.268L69.9755 46.9519C69.344 46.0153 68.3099 45.4758 67.1495 45.4758C66.5459 45.4758 67.1874 45.5751 66.0086 45.481C62.9642 45.2357 60.9213 44.7446 58.1384 46.1245C57.017 46.6805 56.1073 47.5458 55.2369 48.4174L53.6544 50.0818C53.5119 50.2439 53.5119 50.2839 53.3679 50.4453C52.3179 51.6241 51.4321 52.911 50.6233 54.2735L49.3359 56.8835C48.6851 58.5253 48.1842 60.1127 47.8218 61.9428C47.5127 63.4999 47.3419 65.0952 47.3419 66.7381L47.3418 66.7383Z" fill="#E0F087"/>
    </symbol>
    <symbol id="vk" viewBox="0 0 204 117">
        <path d="M67.8387 8.93416C70.7005 9.17342 72.9695 10.1192 74.9174 11.3816C77.209 12.8643 77.8245 14.1681 78.7021 17.1192C81.5545 26.7003 80.3837 38.034 79.3488 47.8283C79.1035 50.1636 78.707 51.9929 77.8876 53.9065C77.0621 55.836 76.6064 56.5373 75.4022 56.9754C71.072 58.5522 66.7945 53.5088 64.5388 50.729C61.3697 46.8277 57.7768 40.4065 55.4044 35.656C54.3658 33.5742 53.4821 32.2248 52.4903 30.2372L44.6864 13.8325C43.6905 11.5923 43.3716 10.0859 41.7649 8.41987C38.16 4.68155 35.3545 5.76298 28.9485 5.76034C25.8066 5.76034 7.09873 5.51269 4.88353 5.90349C3.66426 6.11778 2.81039 6.4678 2.0027 6.98938C1.03478 7.61603 0.543779 8.45538 0.375977 9.41273V11.1434C0.787931 14.048 2.9639 17.4469 3.77953 19.4202C9.03157 32.133 18.2361 48.6167 25.6995 60.9962C31.3564 70.383 40.1094 82.1145 47.08 90.4102C51.2076 95.3229 50.2265 93.7091 53.4561 96.7331C55.7284 98.8587 57.9091 100.54 60.5337 102.355C80.2265 115.965 87.5864 116.083 110.301 116.083C120.42 116.083 118.981 109.819 119.448 103.8C119.682 100.784 120.433 97.5322 121.536 95.1719C122.119 93.9201 122.834 92.7328 123.688 91.769C127.787 87.1486 131.906 90.2735 135.66 93.8984L143.071 101.964C145.965 105.705 152.923 112.444 157.527 114.494C165.451 118.022 174.359 116.039 182.126 116.08C189.956 116.12 203.558 117.515 203.558 110.13C203.558 105.477 201.177 103.042 199.364 100.038C195.932 94.3501 181.728 80.0922 176.285 75.4956C174.981 74.3938 170.621 69.6277 170.621 66.4767C170.621 60.51 181.049 48.6321 185.416 42.7799C190.413 36.0833 215.227 5.76034 196.812 5.76034L162.058 5.98883C160.221 5.77718 158.883 6.02264 157.616 7.04198C156.382 8.03034 155.777 9.07347 155.146 10.5229C151.975 17.791 150.096 23.3157 145.788 30.5312C144.991 31.8665 144.625 32.7653 143.808 34.1089L136.89 45.0499C136.062 46.299 135.306 47.2459 134.433 48.5438C132.931 50.7756 126.992 56.9528 124.984 56.9528C119.245 56.9528 119.028 48.3345 119.031 42.2691L119.773 12.1628C118.96 4.32409 116.408 2.50338 109.914 1.38502C101.834 -0.00471741 83.9303 0.349121 76.2752 1.89609C72.9776 2.56165 67.9256 5.01731 67.8387 8.93441V8.93416Z" fill="#E0F087"/>
    </symbol>
    <symbol id="telegramm" viewBox="0 0 164 139">
        <path fill-rule="evenodd" clip-rule="evenodd" d="M61.86 129.416C68.2757 128.651 75.8338 119.626 81.5492 114.317C83.5644 112.445 85.2571 109.912 87.5857 108.672C89.847 109.677 115.302 129.049 118.087 131.091C121.416 133.532 130.657 141.939 135.78 136.108C138.538 132.97 140.472 120.574 141.635 115.05C147.828 85.6281 154.019 56.3878 160.304 27.1861C161.388 22.1521 165.152 9.18 162.831 4.78179C158.959 -2.55768 150.437 2.60431 144.439 4.90038C131.571 9.82473 119.153 14.7199 106.026 19.7255C80.1692 29.5863 54.738 39.4943 29.1128 49.4031C22.7545 51.8617 16.5372 54.21 10.0334 56.7634C6.84125 58.0167 3.48179 59.2788 1.84148 61.4565C-1.36772 65.7168 2.72183 67.7505 6.2364 68.7536C12.9719 70.6755 19.7448 72.8288 26.4565 74.8894C29.8331 75.9261 33.2177 76.988 36.7341 78.0689C41.762 79.6151 42.6182 81.0126 46.5841 78.4202C72.4576 61.5068 101.557 43.8148 128.171 27.0462C129.333 26.3141 130.995 24.9326 132.595 24.7134C140.249 23.6649 130.01 31.2145 127.023 34.2415C125.822 35.4593 124.859 36.1632 123.577 37.2796C122.378 38.3247 121.455 39.406 120.258 40.4416L74.9026 81.733C62.0791 92.9763 64.826 89.5719 63.7413 104.086C63.1279 112.29 62.0267 121.235 61.86 129.416Z" fill="#E0F087"/>
    </symbol>
</svg>
